<svg xmlns="http://www.w3.org/2000/svg" viewBox="0 0 161.05 57.98"><defs><style>.cls-1{fill:#010101;}.cls-1,.cls-2{fill-rule:evenodd;}.cls-2{fill:#233d77;}</style></defs><g id="Layer_2" data-name="Layer 2"><g id="Layer_1-2" data-name="Layer 1"><path class="cls-1" d="M33.43,12.08a1.38,1.38,0,1,1,2.76.12c0,1.85-1.18,1.56-1.92,1.56-.45,0-.84-1.18-.84-1.68Zm3.83-1.44c1.2.28,3,2.78,2.15,3.09-.16.06-1.62,0-1.91,0a3.51,3.51,0,0,0-.24-3.11ZM73.07,9.21c0,.15,1.14.91,1.34,1a22,22,0,0,1,4,3.5H61.22A10.8,10.8,0,0,0,60.38,9a9.42,9.42,0,0,0-1.92,1.32,6.72,6.72,0,0,1,.6,2.63,7.07,7.07,0,0,1-.12.84H41.7c0-1.6-1.15-3.15-2-4.25A6.64,6.64,0,0,0,38,8.08c-1-.65-3.09-1.52-3.82.23-.33.8,0,.67-.62,1.18a4.85,4.85,0,0,0-1.84,4.27H15L15.11,3.7a6.68,6.68,0,0,0-1.2.48c-.38.16-.83.3-1.2.48,0,2,.13,3.68.12,5.75,0,1,.12,1.65.12,2.75v3H81c0-3.19,1.11-1.37-1.06-4.09L75.23,8.13a11.7,11.7,0,0,0,2-.76l3-1.23c.53-.23.45-.27.68-.76s.63-1.3,1-1.92L74.14,6.57c-.54.27-.2,0-.4.43l-.67,2.21Z"/><path class="cls-1" d="M22.17,22.74c0,2,.13,3.68.12,5.75,0,1,.12,1.66.12,2.75v3H80c.17-2.09.54-4-.2-6.27-.14-.46-.24-.44-.28-.92a22.29,22.29,0,0,0-2,1.2c.06.72.6,1.09.6,2.75a6.52,6.52,0,0,1-.12.84H54a6.83,6.83,0,0,0-1-1.53c-1.06-1.55-2.61-3.5-4.77-3.5a2.38,2.38,0,0,0-2.18,1.66c-.18.6,0,.38.15,1,1-.24,2-1.5,3.92.5a11.66,11.66,0,0,1,1.35,1.89H24.45l.12-10.06-2.4,1Z"/><path class="cls-1" d="M8.4,10.17A12.35,12.35,0,0,0,9,12,5.73,5.73,0,0,1,8.35,17a3.63,3.63,0,0,1-6.19-1.26c-.91-2.53-.14-3.31-.11-4.81-.72.35-1,.16-1.48,1.63-.92,2.66-.85,4.58,1.15,6.61a5.52,5.52,0,0,0,6.33,1c3.89-1.93,4.46-7.23,2.39-11.14-.68.18-1.36,1-2,1.19Z"/><path class="cls-1" d="M11.87,28.25c.34,1.45.6.33.6,3.23,0,.28-.08.36-.36.36H4.33c-1.54,0-1-2.11-1-2.75-1.5.12-2,3.14-2,4.31,0,.35.25.44.35.84H14.51c0-.76.12-1,.12-1.8,0-1.92.11-3.65-.72-5.39-.68.18-1.36,1-2,1.2Z"/><path class="cls-1" d="M17.74,28.25c.09,1.05,2.67,5.39-.51,8a5.33,5.33,0,0,1-2.85,1c-.76.05-.55,0-.83.49a3.86,3.86,0,0,0,3,1.2c2.26,0,4.44-3.28,4.44-6.23a10.47,10.47,0,0,0-1.2-5.63c-.68.18-1.36,1-2,1.2Z"/><path class="cls-1" d="M4.93,24.66l1.7,1.77,1.62-1.56,1.68,1.61a12.41,12.41,0,0,0,1.7-1.7L10,23.07c-.59.41-1.19,1.12-1.71,1.47L6.75,23.07c-.71.21-1.23,1.19-1.82,1.59Z"/><polygon class="cls-1" points="73.7 23.25 75.38 24.99 77 23.43 78.61 24.99 80.41 23.25 78.61 21.52 77.05 23.13 75.44 21.57 73.7 23.25"/><path class="cls-1" d="M56.4,20.08l1.67,1.73,1.62-1.56c.54.36,1.1,1.08,1.77,1.53L63.16,20c-.6-.41-1.15-1.13-1.82-1.58L59.69,20,58.13,18.4,56.4,20.08Z"/><path class="cls-1" d="M47.68,37.47a9,9,0,0,0,1.8,1.68l1.65-1.71-1.62-1.67a6.86,6.86,0,0,0-1.83,1.7Z"/><path class="cls-2" d="M36,47.17c1.32,0,1.91.44,1.91,2.16,0,.65-.47.38-.47.38-.27-.05-.68-.2-1-.28-.54-.16-1.23-.32-1.81-.46.07-.89.77-1.8,1.32-1.8ZM11.52,40.82c0,.81.12,1.25.12,2.16s0,1.6,0,2.4.13,1.24.13,2.15,0,1.6,0,2.4H3.25c-1.24,0-.75-2.38-.72-2.76-1,.08-1.19.8-1.48,1.63S.14,51.26.68,52c.14.21.12.3.42.3H33.19c.39,0,.64-.74.72-1.08l2.35.65c.81.23,1.67.49,2.44.67a1.79,1.79,0,0,0,.86-1.3c.36-1.74.49-4.31-1-5.56a3.45,3.45,0,0,0-3.07-.61A4.68,4.68,0,0,0,33.36,47c-2.21,3.68,2.45,3-8.91,3a10.63,10.63,0,0,0-.84-4.79,9.81,9.81,0,0,0-1.92,1.31,6.83,6.83,0,0,1,.6,2.64,7.07,7.07,0,0,1-.12.84H13.79c0-3.45.12-6.56.12-10.06-.74.35-1.65.6-2.4,1Z"/><path class="cls-2" d="M60.14,46.93c1.86,0,2,1.26,2,3-1.6,0-3.42.38-3.16-1.5a2.55,2.55,0,0,1,.35-1,1.29,1.29,0,0,1,.78-.54Zm14,0a1.68,1.68,0,0,1,1.17.27c.76.7.29,2-.21,2.73H73.55c-.13-.5-.62-1-.57-1.78a1.21,1.21,0,0,1,1.17-1.22Zm2.76-.12c.84.45,2.27,1.65,2.27,2.88,0,.41-1.7.24-2.15.24C77.77,48.37,77,47.57,76.91,46.81Zm-5.63,2.64v.48H64.45c0-5.41-4.42-6.15-6.28-3.65-1.37,1.83-1.66,4.53.1,5.76.76.53,2.61.28,3.79.28a6.28,6.28,0,0,1-.31.65,6.07,6.07,0,0,1-.45.64,3.84,3.84,0,0,1-1.18,1,5.11,5.11,0,0,1-1.47.56,4.44,4.44,0,0,1-.92.16c-1.5.13-.4.88.33,1.26,3.55,1.82,6-2.51,6.15-4.24H80.86a15.59,15.59,0,0,0,.36-2.63c0-3.58-6.22-8.57-7.5-5.11-.48,1.3.14.31-1,1.42a4.81,4.81,0,0,0-1.46,3.45Z"/><path class="cls-2" d="M41.1,40.82c0,2,.13,3.69.12,5.75,0,1,.12,1.66.12,2.76v3H55.71c.17-2.08.54-4-.2-6.27a3,3,0,0,1-.28-.91,21.69,21.69,0,0,0-2,1.19c.06.72.6,1.1.6,2.76a7.07,7.07,0,0,1-.12.84H43.37l.12-10.06-2.39,1Z"/><path class="cls-2" d="M19.63,56.25,21.31,58l1.61-1.56c.55.36,1.1,1.08,1.77,1.53l1.7-1.77c-.6-.41-1.15-1.13-1.82-1.58L23,56.12l-1.62-1.55-1.73,1.68Z"/><path class="cls-2" d="M5.41,44.9a1.08,1.08,0,0,0,.6.83l.36.24c-1.27.3-1,.94-.84,1.44a7.69,7.69,0,0,1,3.23-1.2c.06-.69.42-1.1.48-1.79-2.51,0-2.52.21-2.28-.84.56-.13.46,0,1.2,0a3.92,3.92,0,0,1,.36-1.08c-.84-.56-1.38-.66-2.13.15a4.19,4.19,0,0,0-1,2.25Z"/><path class="cls-2" d="M51.25,41.87a4.8,4.8,0,0,0,.84.9l1,.81,1.65-1.71A6.85,6.85,0,0,0,53,40.23l-1.7,1.64Z"/><path class="cls-1" d="M3.76,7,5.43,8.7A10.36,10.36,0,0,0,7.2,7.05,6.57,6.57,0,0,0,5.41,5.38L3.76,7Z"/><path class="cls-2" d="M134.45,27.76c-.59-.4-6.3-6.35-7.38-7.34l-.13-.12-.16-.16,0,0-.8-.8,0,0-.62-.61c-.17-.16-.15-.23-.35-.28l-1.81,1.79-.09.09L120.26,23c-.22.22-.56.42-.59.75a2.49,2.49,0,0,1,.73.68l0,0,3,3a7.84,7.84,0,0,0,1.48-1.41l9.43,9.39a2.94,2.94,0,0,1,.08,1.21V56.8a2.41,2.41,0,0,0,.81-.34l9-4.13c1-.44,1.84-.9,2.83-1.29.18-.07.35-.07.35-.28V40c0-.21-.15-.19-.32-.25a9.16,9.16,0,0,1-2.7-1.41,12.41,12.41,0,0,1-1.84-1.63,4,4,0,0,1-.26-.32c-.12-.15-.15-.25-.34-.3v11.3a11.21,11.21,0,0,1-2.05.9c.16-.34.06-17.85.06-19.79V8.55A6.13,6.13,0,0,1,141,9a10.34,10.34,0,0,1,1,.48v19a9.71,9.71,0,0,0,.54,4.23,9.06,9.06,0,0,0,1.27,2.25c.2.27.38.41.57.66a6.42,6.42,0,0,0,1.28,1.1,12.45,12.45,0,0,0,2.32,1.21,3.62,3.62,0,0,0,.43.14,10.31,10.31,0,0,0,3.68.5,9,9,0,0,0,6.18-2.75,7.57,7.57,0,0,0,1-1.17,8.83,8.83,0,0,0,1.8-5,15.62,15.62,0,0,0-.12-2.38l-.22-.95c-.06-.25-.18-.51-.28-.8a8.75,8.75,0,0,0-.75-1.5c-.17-.27-.28-.44-.47-.69a9.44,9.44,0,0,0-3.81-3.07l-.78-.31a8.51,8.51,0,0,0-3.15-.51,8.3,8.3,0,0,0-2.12.26c.2.27.2,0,.2.5v5.21l.92-.36a4.09,4.09,0,0,1,3.94,6.84,4.55,4.55,0,0,1-1.14.79,4.12,4.12,0,0,1-5.84-3.48c-.09-1.17,0-6.18,0-7.77V5.91c-.5-.26-1-.49-1.58-.73-1.22-.57-2.45-1.07-3.66-1.68-1.45-.73-3-1.34-4.44-2-.57-.27-1.09-.49-1.63-.75A9.08,9.08,0,0,0,134.45,0V27.76Z"/><path class="cls-2" d="M102.52,5.91V25.25c0,2.54.46,5-1.18,6.6a4,4,0,0,1-3.13,1.24,3.7,3.7,0,0,1-2.4-.94l-.48-.48A4.09,4.09,0,0,1,95,26.84a4,4,0,0,1,1.28-1.28,4.74,4.74,0,0,1,2-.61c.92-.13,1.5.38,2.16.43a52.86,52.86,0,0,0-.07-5.72,7.81,7.81,0,0,0-2-.19,9.1,9.1,0,0,0-5.82,2.09A9.58,9.58,0,0,0,89.82,33.2a10.93,10.93,0,0,0,1.31,2,9.85,9.85,0,0,0,1.76,1.59,8.63,8.63,0,0,0,5,1.74,9.66,9.66,0,0,0,4.41-.79c.19-.08.27-.1.45-.19a9.27,9.27,0,0,0,3.3-2.62,8,8,0,0,0,1.31-2.29,10.59,10.59,0,0,0,.51-1.87,15.15,15.15,0,0,0,.11-2.26V9.45c.3-.17.62-.31,1-.46l.49-.22a3,3,0,0,1,.55-.22V38.36c0,1.2-.11,9.53.06,9.89a7.52,7.52,0,0,1-1.52-.66l-.53-.24V36.62c0-.62.09-.77-.13-.63s0,0-.13.17a2.85,2.85,0,0,1-.27.32,5.88,5.88,0,0,1-.58.64,10.36,10.36,0,0,1-2.75,2.07l-1.24.56c-.2.08-.36.07-.36.28V50.76c0,.2.14.2.3.27,1.26.49,2.42,1.14,3.66,1.67.32.14.53.25.85.38s.51.26.78.37.54.24.85.37c1.65.71,3.23,1.54,4.88,2.25.27.12.54.23.8.36l.39.19c.19.09.18.15.46.18l-.06-16.52c0-.55.06-1,.06-1.6V30.33c.52.34,7.59,7.58,9,9,.15.15.24.19.3.35.33,0,.69-.55.94-.79l.1-.1.16-.16.5-.52.36-.35.68-.67a31,31,0,0,0,2.66-2.74c-.31-.46-2.31-2.34-2.85-2.88-.25-.25-.68-.82-1-.91L124.89,32c-.32-.47-4.62-4.66-5.14-5.17-.23-.23-.41-.44-.65-.64-.81-.68-1.51-1.5-2.26-2.24l-.71-.7,0,0,0,0,0,0c-.77-.77-.54-.49-.54-2.42V0a30.38,30.38,0,0,0-3.25,1.43l-.4.19c-1.45.7-3,1.32-4.44,2-.54.27-1.08.48-1.63.75l-3.26,1.5Z"/></g></g></svg>